{"title":"The.Martian.2015.540p.HDRip.KORSUB.x264.AAC2.0-FGT","uid":12949139,"size":2348413458,"categoryP":"video","categoryS":"movies","magnet":"?xt=urn:btih:ba299df2aee125160006474067af693d8c68971d&amp;dn=The.Martian.2015.540p.HDRip.KORSUB.x264.AAC2.0-FGT&amp;tr=udp%3A%2F%2Ftracker.leechers-paradise.org%3A6969&amp;tr=udp%3A%2F%2Fzer0day.ch%3A1337&amp;tr=udp%3A%2F%2Fopen.demonii.com%3A1337&amp;tr=udp%3A%2F%2Ftracker.coppersurfer.tk%3A6969&amp;tr=udp%3A%2F%2Fexodus.desync.com%3A6969","seeders":0,"leechers":5,"uploader":"TheRival","files":3,"time":1449707931,"description":"Screens: \nhttp://extraimago.com/image/PS3 \nhttp://extraimago.com/image/PS9 \nhttp://extraimago.com/image/PSM \nhttp://extraimago.com/image/PSz \nhttp://extraimago.com/image/PS0 \nhttp://extraimago.com/image/PSJ\r\n\r\nVideo\r\nID                                       : 1\r\nFormat                                   : AVC\r\nFormat/Info                              : Advanced Video Codec\r\nFormat profile                           :   \r\nFormat settings, CABAC                   : Yes\r\nFormat settings, ReFrames                : 4 frames\r\nCodec ID                                 : avc1\r\nCodec ID/Info                            : Advanced Video Coding\r\nDuration                                 : 2h 21mn\r\nBit rate                                 : 2 000 Kbps\r\nWidth                                    : 960 pixels\r\nHeight                                   : 536 pixels\r\nDisplay aspect ratio                     : 16:9\r\nFrame rate mode                          : Constant\r\nFrame rate                               : 60.000 fps\r\nColor space                              : YUV\r\nChroma subsampling                       : 4:2:0\r\nBit depth                                : 8 bits\r\nScan type                                : Progressive\r\nBits/(Pixel*Frame)                       : 0.065\r\nStream size                              : 1.98 GiB (91%)\r\nTitle                                    : The.Martian.2015.540p.HDRip.KORSUB.x264.AAC2.0-FGT\r\nWriting library                          : x264 core 148 r2597M e86f3a1\r\nEncoding settings                        : cabac=1 / ref=4 / deblock=1:-1:-1 / analyse=0x3:0x113 / me=umh / subme=8 / psy=1 / psy_rd=1.00:0.15 / mixed_ref=1 / me_range=16 / chroma_me=1 / trellis=1 / 8x8dct=1 / cqm=0 / deadzone=21,11 / fast_pskip=1 / chroma_qp_offset=-3 / threads=40 / lookahead_threads=8 / sliced_threads=0 / nr=0 / decimate=1 / interlaced=0 / bluray_compat=0 / constrained_intra=0 / bframes=3 / b_pyramid=2 / b_adapt=2 / b_bias=0 / direct=3 / weightb=1 / open_gop=0 / weightp=2 / keyint=250 / keyint_min=25 / scenecut=40 / intra_refresh=0 / rc_lookahead=50 / rc=abr / mbtree=1 / bitrate=2000 / ratetol=1.0 / qcomp=0.60 / qpmin=0 / qpmax=69 / qpstep=4 / ip_ratio=1.40 / aq=1:1.00\r\n\r\nAudio\r\nID                                       : 2\r\nFormat                                   : AAC\r\nFormat/Info                              : Advanced Audio Codec\r\nFormat profile                           : LC\r\nCodec ID                                 : 40\r\nDuration                                 : 2h 21mn\r\nDuration_LastFrame                       : -3ms\r\nBit rate mode                            : Constant\r\nBit rate                                 : 192 Kbps\r\nChannel(s)                               : 2 channels\r\nChannel positions                        : Front: L R\r\nSampling rate                            : 48.0 KHz\r\nCompression mode                         : Lossy\r\nStream size                              : 194 MiB (9%)\r\nTitle                                    : The.Martian.2015.540p.HDRip.KORSUB.x264.AAC2.0-FGT","torrent":{"xt":"urn:btih:ba299df2aee125160006474067af693d8c68971d","amp;dn":"The.Martian.2015.540p.HDRip.KORSUB.x264.AAC2.0-FGT","amp;tr":["udp%3A%2F%2Ftracker.leechers-paradise.org%3A6969","udp%3A%2F%2Fzer0day.ch%3A1337","udp%3A%2F%2Fopen.demonii.com%3A1337","udp%3A%2F%2Ftracker.coppersurfer.tk%3A6969","udp%3A%2F%2Fexodus.desync.com%3A6969"],"infoHash":"ba299df2aee125160006474067af693d8c68971d","infoHashBuffer":{"type":"Buffer","data":[186,41,157,242,174,225,37,22,0,6,71,64,103,175,105,61,140,104,151,29]},"announce":[],"urlList":[]}}